<svg id="Layer_1" data-name="Layer 1" xmlns="http://www.w3.org/2000/svg" viewBox="0 0 320 300"><title>sign1</title><path d="M206.7,126.6c-5.2,13.2-24,13.5-29.5.4-6.4-14.9,7-29.4,21.3-23.1a17.7,17.7,0,0,1,4.3,2.8,18.7,18.7,0,0,1,3.9,19.9"/><path d="M232.8,87.8c-3.2,10.9-20.3,9.6-26.1-2.1s2.1-22.1,14.1-18.5a17.9,17.9,0,0,1,6.2,3.4c5,4.4,7.4,11.6,5.8,17.2"/><path d="M240.2,122.9c-4,12.1-20.4,12.4-26.5.5S215,95.5,229,99.6a15,15,0,0,1,6.7,4,19.7,19.7,0,0,1,4.5,19.3"/><path d="M200.8,90.5c-4.8,11.6-23.4,11.2-28.8-.7s5.4-24.2,19-19.8a16.6,16.6,0,0,1,5.2,2.8c5.1,4.3,7.1,11.7,4.6,17.7"/><path d="M165.3,95.9c-5.2,13.7-22.8,15.5-28.9,2.9-5.4-10.9,7.3-24.6,19.4-20.9a14.5,14.5,0,0,1,5.1,2.8c4.9,3.9,6.6,9.6,4.4,15.2"/><path d="M220.3,56.1c-2.6,10.3-18.5,7.2-23.5-2.3-4-7.6,3.4-15.2,12.2-12.6a18.1,18.1,0,0,1,5.5,2.9c6.5,5.1,6.4,9.7,5.8,12"/><path d="M212.2,163.1c-6.1,13.5-22.7,13.8-27.7.6s8.6-26.5,19.9-21.5a15.8,15.8,0,0,1,4.9,3.5,15.6,15.6,0,0,1,2.9,17.4"/><path d="M171.6,131.8c-5.5,14.1-22.9,15.4-28.9,2.2s7.1-26.7,19.3-22.6a15.4,15.4,0,0,1,5.4,3.2c5.1,4.6,6.7,11,4.2,17.2"/><path d="M192.4,58.5c-4.3,11.7-22.6,9.4-26.7-.7s8.2-17.6,18.5-13.3a20.6,20.6,0,0,1,3.4,1.9c4.6,3.3,6.3,7.9,4.8,12.1"/><path d="M244.4,158c-5.4,13-20.2,13.6-25.6,1s6.2-27.1,17.1-22.9a14.3,14.3,0,0,1,5.7,4.3c5.4,7.1,4.5,13.5,2.8,17.6"/><path d="M257.3,83.3c-.6,8.9-10,11.3-18.5,1.4s-3.8-20.4,3.5-19.8c3.7.3,6.8,3,8.3,4.3,4.5,4.2,7,9.5,6.7,14.1"/><path d="M267.7,115.9c-1.5,9.2-11.2,14.1-19.7,2.6s-2.4-25.4,7-23.4c1.4.3,4.2,1.3,7.4,4.7,5.5,6.6,6,12.4,5.3,16.1"/><path d="M157.8,63.3c-6,10.4-23.5,10.3-26.5-.1S143.6,43.3,154,49.3l1,.7c6.6,5.2,3.8,11.5,2.8,13.3"/><path d="M174.5,170.2c-5.8,12.6-22.2,12.7-26.5.2s9.3-26,20.8-19.6a18.6,18.6,0,0,1,2.8,2.1,15.3,15.3,0,0,1,2.9,17.3"/><path d="M244.5,55.1c-.1,6.6-8.9,6.6-15.6,0s-6.2-15.3.8-15.1c3.5.2,6.6,2.5,7.8,3.3,6.6,5.5,7,10.4,7,11.8"/><path d="M272.9,155.5c-3.6,10.8-14.5,12.3-19.8,2.7-6.3-11.6,1.4-27.9,11.7-24.6a12.4,12.4,0,0,1,5.7,4.4,19.9,19.9,0,0,1,2.4,17.5"/><path d="M210.1,32.8c-1.7,5.9-14.9,4.4-18.8-2.1s1.9-10.5,10.1-8.4a16.6,16.6,0,0,1,4.1,1.8c3.5,2.2,5.4,5.9,4.6,8.7"/><path d="M209.8,200.8c-6,9.3-20.8,10.3-23.6-.7-3.1-12.8,10.1-24.5,20.8-18.5a12.2,12.2,0,0,1,2.9,2.3c3.5,4.3,3.4,11.4-.1,16.9"/><path d="M134,143.6c-4.1,10.3-19.7,13.6-25,2.4s5.5-26.6,18-22a11.7,11.7,0,0,1,3.4,1.9c4.6,3.9,6.1,11.3,3.6,17.7"/><path d="M288.2,114.6c0,8.4-5.7,9.6-10.6,5.1-7.1-6.6-9.4-24.2-1.7-24.6,3.5-.2,6.3,3.1,7.2,4.1a28.1,28.1,0,0,1,5.1,15.4"/><path d="M243.4,196.8c-6.1,9.3-20.1,9.7-22-2s10.8-24.5,20.5-18a9.8,9.8,0,0,1,2.5,2.5c3.1,4.6,2.7,11.9-1,17.5"/><path d="M127,105.1c-4.9,11.3-21.2,13.3-25.5,3.1C96.1,95.9,110,81.6,122,87a15.9,15.9,0,0,1,2.2,1.3c4.3,3.5,5.5,10.5,2.8,16.8"/><path d="M275.6,80.7c1,6.5-3.8,7.2-8.6,3.9-7.7-5.3-12.2-19.8-6.7-21.2,1.5-.4,4.1-.1,8,3.6s6.7,9.3,7.3,13.7"/><path d="M182.7,34.2c-3.8,7.2-20.2,6-22.1-1.6S171.3,20,180,25c3.3,2.2,4.5,6,2.7,9.2"/><path d="M271,192c-5,9.4-15.3,10.1-18.1,1.2-3.7-11.5,6.7-25.6,15.6-21.2a8.1,8.1,0,0,1,3.5,3.5c3.5,7.4-.2,15-1,16.5"/><path d="M121.4,72.5c-5.9,10.4-21.9,11.7-24.4,2C94,63,109.8,53.4,118.9,58.3l.9.5c6.3,5.2,2.1,12.9,1.6,13.7"/><path d="M260,53.9c1.4,4.5-2,5.1-5.9,3.1-7.2-3.8-13.6-15.5-9.1-16.8,1-.3,3.1,0,7,3s7,7.4,8,10.7"/><path d="M229.1,31.8c.7,4.3-5.5,4.7-11.4.7s-7.2-9.5-2.6-10.3c1.4-.3,4-.1,7.8,2.2s5.8,5.1,6.2,7.4"/><path d="M293.8,150.2c-1.9,8.2-8.2,9.8-12.2,3.2-5.3-8.9-2.4-26.7,5.8-24.2,2.3.7,3.7,2.9,4.3,4,3,5.2,3.2,12.5,2.1,17"/><path d="M152.9,37.6c-5.4,8.1-22,8.1-23,0s13.4-14,21.6-9.4c3.7,2.5,3.4,6.5,1.4,9.4"/><path d="M177.8,205.1c-5,9.9-19.5,12-22.9.7s8.4-23.1,18.8-17.7a12.6,12.6,0,0,1,2.7,2c3.5,3.8,4,9.8,1.4,15"/><path d="M140.7,177.4c-3.6,10.7-17.8,14.1-23.2,2.7s4.2-24.3,15.6-20.6a12.4,12.4,0,0,1,4,2.2,14.7,14.7,0,0,1,3.6,15.7"/><path d="M199.8,15.9c-2.2,3.9-13.8,1.8-14.6-2.7-.5-2.9,6.3-4.3,11.8-1.5,3.3,1.8,3.4,3.3,2.8,4.2"/><path d="M292.3,187.6c-3.3,8-9.3,11.6-12,4.3-3.6-10.1,4.6-25.3,10.2-22.6,1.6.7,2.3,2.5,2.8,3.7a21.3,21.3,0,0,1-1,14.6"/><path d="M286.2,78.3c1.5,4,1.6,7.3-1,6C278.7,81,271.8,64.6,274.9,64c1.2-.2,3.6,2.3,4.5,3.3a41.6,41.6,0,0,1,6.8,11"/><path d="M261.7,225.1c-5.8,7.6-14.9,9.6-15.8,1.2s11.1-21.1,17.2-16.6a8.2,8.2,0,0,1,1.9,2.8c1.2,3.6,0,8.4-3.3,12.6"/><path d="M299.4,109.1c.7,4.8-.3,8.4-3.1,6.1-6.2-4.9-9.7-22.6-6-23,1.5-.2,3.3,2.6,4.1,3.6a34.8,34.8,0,0,1,5,13.3"/><path d="M235.5,229.1c-7.7,8.6-18.4,7.9-18.9-1.2s13.3-20.6,20.2-13.7a8.3,8.3,0,0,1,1.3,1.8c2.6,5.4,0,10.1-2.6,13.1"/><path d="M216.3,17.2c.6,1.8-3.4,1.8-7.8-.6s-4.6-4-3.1-4.5,3.5.1,6.3,1.4,4.4,3,4.6,3.7"/><path d="M85.8,81.7c-5.3,10.4-17.6,13.5-20.5,5.2s9.8-22.3,18.2-18.1l1,.6c4.7,3.9,2.5,9.9,1.3,12.3"/><path d="M242.1,31.7c1.3,1.8,1.4,3.5-.8,3.1-5.2-.9-13.5-9.7-11.7-11.3s4.3,1.4,5.4,2a28.3,28.3,0,0,1,7.1,6.2"/><path d="M269,53c1.9,2.9,2.2,4.7.7,4.4-4.4-1-14.6-14.9-13.1-15.9s3.4,1.8,4.3,2.5a54.8,54.8,0,0,1,8.1,9"/><path d="M119.1,42.7c-7,9-20.3,9.4-21.6,2.7s13.7-16.6,21.3-11.6c4,3,1.9,6.9.3,8.9"/><path d="M306.8,145.2c-.4,5.5-2.3,9.6-4.8,6.7-4.6-5.2-4.8-25-.3-24.4,1.4.2,2.5,2.5,3,3.6a35.5,35.5,0,0,1,2.1,14.1"/><path d="M178.6,16.1c-5.3,5.1-17.7,2.7-17.2-1.8s10.3-6.1,15.9-3.1c3.2,1.9,2.5,3.7,1.3,4.9"/><path d="M108.1,185.1c-2.3,10.4-12.4,13.1-18.1,4.8s-.5-21.7,8.7-20.4a11.1,11.1,0,0,1,5,2.2,13.5,13.5,0,0,1,4.4,13.4"/><path d="M143.7,211.9c-4.6,10.3-16,10.8-19.7.9s5.5-20.2,14.1-16.4a12.7,12.7,0,0,1,3.1,2.1c4.8,5,4,10,2.5,13.4"/><path d="M173.6,237c-6.4,8.3-17,7.8-18.1-.8s10.1-17.9,17.3-12.9a11,11,0,0,1,1.6,1.5c3.7,5.2.7,10.3-.8,12.2"/><path d="M99.3,151c-3,11.9-14.7,14.8-20.5,5.1S81.1,133,90.6,135a12.6,12.6,0,0,1,8.7,16"/><path d="M206.4,231.9c-7.1,9-18.6,9-19.9,0s11.4-19.6,19.1-14.3a10.3,10.3,0,0,1,2.1,2.1c2.5,3.6,2,8.2-1.3,12.2"/><path d="M152.4,18c-6.2,5.5-18.9,4.7-18.3.1s12.6-8.5,18.6-5.5c3.1,2,.9,4.5-.3,5.4"/><path d="M91.3,116.6c-3.9,12.1-16.5,15.4-21.4,5.6S75.6,98.5,85,101.6a13,13,0,0,1,2.9,1.5c3.9,3,5.2,8.1,3.4,13.5"/><path d="M120.3,23.1c-5.6,4.9-18.4,7.3-17.7,2.2s15.3-11,19.7-8.4c2.7,2-1.9,6.1-2,6.2"/><path d="M305.9,180.8c-1.8,6.3-4.5,8-5.9,5.6-2.9-5.2,1.4-24.2,5.3-23.4,1.2.2,1.6,2.1,1.8,3,.7,3.6.2,9.8-1.2,14.8"/><path d="M84.6,54C79.9,61,67.2,65.5,66,59.1S78.5,40.7,85.4,44.5c2.5,1.7,1.5,6.1-.8,9.5"/><path d="M283,221.3c-4.5,6.7-9.9,7.5-10.7,3.2-1.4-6.6,7.9-21.9,13.4-19a3.4,3.4,0,0,1,1.6,2.7c.5,5.9-3.8,12.4-4.3,13.1"/><path d="M116.1,220.3c-1.6,7.2-10,10.4-14.5,3.6-5.7-8.8-1.1-19.6,7.6-17.9a9.9,9.9,0,0,1,3.6,1.7c5,4.9,3.5,11.8,3.3,12.6"/><path d="M146,242.4c-3.4,6.5-12.7,8.3-15,1.3-3.3-9.8,6.1-17.8,13-13.8a4.4,4.4,0,0,1,1.5,1.1c3.8,4.7,1.1,10.3.5,11.4"/><path d="M193.6,260.2c-5.6,4.6-15.7,5.7-14.6-.9,1.4-9.2,14.6-14.8,18.7-9.8l.4.6c1.9,4.8-3.8,9.6-4.5,10.1"/><path d="M59.2,129.8c-1.9,9.5-11.4,14-15.5,7.3-5.2-8.5,1.4-22.3,10-20.7a6,6,0,0,1,2.4,1c3.3,2.5,3.9,8.2,3.1,12.4"/><path d="M222.6,256.5c-6.4,5.3-15.1,5.5-14.9.3.3-8.4,14.8-17.2,19.6-11.8a6,6,0,0,1,.6,1.1c.9,2.7-1.4,7.1-5.3,10.4"/><path d="M70.3,164.5c-1,8.5-9.3,12.4-14.1,6.7-6.8-8.1-2.7-22,6.3-21.2a6.2,6.2,0,0,1,3.4,1.3c3.2,2.4,5.1,8,4.4,13.2"/><path d="M177.1,6.5c-4.1,1.6-13,.8-12.3-1.1s10.2-1.8,13.1-.7-.2,1.6-.8,1.8"/><path d="M92.5,227.8c0,6-3.8,11-9.5,5s-4.2-16.1,1-16.2a8,8,0,0,1,4.1,1.6,12,12,0,0,1,4.4,9.6"/><path d="M297.3,214.1c-2.1,4.2-5.6,8.9-6.6,6.6-1.8-4,5.8-21.1,9.1-20.3.8.2.8,2,.8,2.9a31.4,31.4,0,0,1-3.3,10.8"/><path d="M81,197.8c-.4,8.2-6.3,12.5-12.2,5.9s-3.8-19.3,3.5-18.6a7.1,7.1,0,0,1,3.8,1.6A13.2,13.2,0,0,1,81,197.8"/><path d="M143.5,265.6c-3.9,5-10.2,6.3-11.1.7s6.3-12.7,10.9-9.1l.9.8c1.6,2.1,1.3,5-.7,7.6"/><path d="M167.2,261.7c-5.5,5.5-13.9,6.3-13.7-.2s11.2-13.8,15.5-9l.4.5c1.6,2.4.7,5.8-2.2,8.7"/><path d="M128.5,9c-7.3,3.3-14.7,4-14.1,2.1S128.6,5,131.5,6.2c.3.2,1.2.9-3,2.8"/><path d="M121.7,246.8c-1.5,5.8-7,9.9-11.3,3.3s0-14.9,5.6-13.7a8.2,8.2,0,0,1,3.3,1.8,8.7,8.7,0,0,1,2.4,8.6"/><path d="M54.7,94.8c-3.4,9.9-12.4,14.8-15.5,8.5S44.9,81.9,51.8,84a5.1,5.1,0,0,1,1.5.7c3.1,2.8,2.5,7,1.4,10.1"/><path d="M90.4,30.5c-6.4,6-15.9,9-16,5S87.6,22.6,92.2,25c2,1.4-.3,4-1.8,5.5"/><path d="M154.4,6.2c-7.1,2.7-14.8,2.2-13.8.3S152.9,2.7,156.3,4c1.5.8-.8,1.8-1.9,2.2"/><path d="M267,250c-4.1,4.1-10.1,7.5-10.1,3.5.1-5.6,11.8-17.2,14.8-14.6.6.5.5,1.6.5,2.2-.5,2.9-2.2,5.9-5.2,8.9"/><path d="M54.3,66.7C49.4,75,41.5,79.1,40.4,74s9.7-18,14.2-15.7l.5.3c1.7,1.4,1.4,4.4-.8,8.1"/><path d="M246.8,254.4c-5.8,4.8-12.5,6.4-12.3,1.3.2-6.9,13.6-16.9,17.3-12.9a3,3,0,0,1,.7,1.9c.1,4.2-3.5,7.9-5.7,9.7"/><path d="M178.7,279.7c-5.4,2.9-12.3,3.3-11-.2,2-5.4,14.5-10.3,16.4-6.4l.2.3c.4,1.8-1.9,4.4-5.6,6.3"/><path d="M103.2,256.7c.1,4.5-3.1,6.6-5.9,3.8s-5.2-12.7-.7-13a5.9,5.9,0,0,1,3.4,1.2c3,2.8,3.2,7.5,3.2,8"/><path d="M281.1,245.3c-3.7,4.5-5.9,5.4-6.1,4.2-.4-2.8,10.5-16.8,11.9-15.3s0,1.9-.1,2c-1.2,3.2-4.2,7.2-5.7,9.1"/><path d="M123.3,272.2c-1.5,3.3-5.6,5-7.1,1.1-2.1-5.7,2-10.8,5.7-8.9a5.6,5.6,0,0,1,1.2.9c2.1,2.7.4,6.5.2,6.9"/><path d="M61.6,211.5c.9,6.1-2.8,8.8-6,6.3-6.7-5-8.2-16.9-2.3-17.6a4.8,4.8,0,0,1,3,.9c4.3,3.4,5.3,10.1,5.3,10.4"/><path d="M45.7,179.5c.5,7.6-4.3,11-8,7.6-5.3-5-5.9-18.3.6-18.9a4.5,4.5,0,0,1,2.9.9c2.8,2,4.3,6.8,4.5,10.4"/><path d="M154.6,281.9c-4.9,3-10,3-9.6.8.9-4.7,11.1-9.7,13.3-6.6.1.1.1.3.2.3s.6,2.8-3.9,5.5"/><path d="M34.6,146.2c-.5,7.4-5.5,12.1-8.8,8.4-5.2-5.7-2.2-20.2,4.1-19.6a3.5,3.5,0,0,1,1.7.7c3.4,3.1,3.1,9.3,3,10.5"/><path d="M203,278.7c-6.4,3.5-12.5,3.4-11.7.8,1.5-5.4,15.6-11.5,17.7-7.7.1.2.1.5.2.7-.1,1.7-2.6,4.2-6.2,6.2"/><path d="M226.1,276.6c-5.1,2.8-10.4,3.3-9.8.9s14.9-12.5,17.3-9a1.2,1.2,0,0,1,.1,1c-.4,1.9-3.7,4.9-7.6,7.1"/><path d="M58.7,44.4C54.5,49,48,52.7,47.8,50.7s11.6-15,14.7-12.9h.1c.8,1.5-3.7,6.4-3.9,6.6"/><path d="M27.1,115c-1.7,7.1-6.7,11.3-8.5,8.6-3.1-4.5,1.4-20.2,6.8-19.1a2.7,2.7,0,0,1,1.1.5c2.3,2.6.7,9.7.6,10"/><path d="M135.5,283.7c-2.4,2-7,3.8-6.9,1s6.2-8.3,8.6-5.9l.4.6c.7,1.7-1,3.4-2.1,4.3"/><path d="M98.6,15.7c-6.5,3.6-11.4,4.8-12.1,4.4-.7-2,13.4-8.6,16.6-7.9-.1.4-.5,1.3-4.5,3.5"/><path d="M76.6,240.3c.9,3.6.5,7.8-3.1,5.7-6-3.5-8.6-13.7-4.8-14.4a4.5,4.5,0,0,1,3.1,1,13.2,13.2,0,0,1,4.8,7.7"/><path d="M244.9,274.2c-4.1,2.6-8.3,4.1-7.9,2.2s13.6-12,14.8-9.9a2,2,0,0,1-.3,1.5c-.9,1.8-3.4,4.2-6.6,6.2"/><path d="M29.1,82.8c-2.6,5.8-7.4,12.4-8.5,9.1S27.2,74.4,29.8,76c.1.1.1.2.2.2s.9,2.5-.9,6.6"/><path d="M17.3,165.3c.5,5.5-.8,10.3-3.2,8.1s-3.9-15.5-.8-16a2.1,2.1,0,0,1,1.5.6c.7.6,2.1,2,2.5,7.3"/><path d="M157.5,293c-2.7.7-8.8,1.6-8,.3s13.1-5,13.4-3.3,0,.3-.1.4-.8,1.5-5.3,2.6"/><path d="M199.8,292.6c-3.4,1-9.1,2.2-8.1.7s5.2-3.1,9-4.2,5.8-1.5,6.2-.2-2.5,2.3-7.1,3.7"/><path d="M10.8,133.5c-.2,2.9-1.1,9.4-3.6,9.7-3-5.2.3-17,2.2-16.5l.6.4c.3.5,1.3,1.7.8,6.4"/><path d="M31.1,195.4c.5,2.2,1.6,9.9-2.4,7.4S22,188,25,187.3a3.1,3.1,0,0,1,2.2.7c.8.7,2.8,2.3,3.9,7.4"/><path d="M180.8,292.3c-4.6,1.4-10.2,2-9.5.7s14.4-6.1,15-4.3a.9.9,0,0,1-.1.7c-.6,1-2.5,2-5.4,2.9"/><path d="M259.1,269.7c-2.5,2.1-6.2,4.5-6.1,3.6s11.9-11.7,12.6-10.6-.3.8-.5,1.2a36,36,0,0,1-6,5.8"/><path d="M73.5,25.5c-2,1.5-9.8,6.6-9.4,5.4s12.3-9,13.3-8.7h0c-.1.3-.4.8-3.9,3.2"/><path d="M91.1,263.7c.6,1.6,1.8,6-.7,4.9-4.5-2.1-8-10.4-5.7-11.2s2,.5,2.5.9a11,11,0,0,1,3.9,5.4"/><path d="M110.2,276.7c0,.9-.2,5.6-3.2,2.6s-2.9-8.6-.6-8.5a3.1,3.1,0,0,1,1.9,1,5.6,5.6,0,0,1,1.9,4.9"/><path d="M48.2,225.2c2.2,5.5,1,7.4-.6,6.7-4.9-2-9.1-13-6.4-14.1.7-.3,1.6.3,2.2.7s3.5,3.5,4.8,6.7"/><path d="M36.7,59.2c-1.6,2.3-7.5,9.8-7.6,7.9s9-13.7,10.2-12.8h.1c-.1.5-.4,1.7-2.7,4.8"/><path d="M67.5,251.2c1.8,3.2,1.7,5.2.4,4.8-3.5-.9-9.5-10-7.5-11.4s1.5.2,2,.5a17,17,0,0,1,5.1,6.1"/><path d="M217.8,291.3c-4.6,1.8-7.2,1.9-7,1.4s13-6.8,13.8-5.7-.2.6-.4.8-3.5,2.3-6.4,3.5"/><path d="M11.1,105.9c-.8,2.7-2.7,8.9-4,8.8-.4-4.2,4-15.3,4.9-14.9s.1.1.1.2.3,1.4-1,5.9"/><path d="M10.4,184.8c.9,3.7,1.1,7.3.1,6.6S6.7,180,7.8,179.7s.3.1.5.2,1.5,2.5,2.1,4.9"/><path d="M24.3,211.9c.6,1.4,2.4,6.6.7,5.8s-6.1-10.2-4.8-10.9.8.1,1,.3,1.6,1.3,3.1,4.8"/></svg>