<svg id="Layer_1" data-name="Layer 1" xmlns="http://www.w3.org/2000/svg" viewBox="0 0 1060 300"><title>logo1</title><path d="M453.3,121.1a10.8,10.8,0,0,1-4.9,2.6,27.8,27.8,0,0,1-7.6.9,29.5,29.5,0,0,1-8.4-1.3c-2.6-.9-4.8-3-6.5-6.4L414.1,92.7l-3.3-7.1c-.9-2.2-2-4.7-3.1-7.6H407c.3,4.4.5,8.8.5,13.2s.1,8.9.1,13.2v18.6a30.6,30.6,0,0,1-4,.8l-5.4.3a33.8,33.8,0,0,1-4.7-.3,8.4,8.4,0,0,1-3.3-1.5,7,7,0,0,1-2.1-2.9,16.4,16.4,0,0,1-.7-4.9v-60a10.2,10.2,0,0,1,5.2-3.6,22.5,22.5,0,0,1,7.4-1.2,26.6,26.6,0,0,1,8.5,1.4c2.7.9,4.8,3,6.4,6.3l12,24.2c1.2,2.5,2.3,4.9,3.2,7.1s2,4.7,3.2,7.6h.6c-.4-4.4-.6-8.7-.6-13s-.2-8.6-.2-13V50.9a37.1,37.1,0,0,1,4.1-.7,31.5,31.5,0,0,1,5.3-.4c3.5,0,6.2.6,8,1.9s2.8,3.8,2.8,7.7Z"/><path d="M527.7,94.5a36.5,36.5,0,0,1-2.3,13.2,25.7,25.7,0,0,1-6.4,9.8,29.2,29.2,0,0,1-9.9,6,37,37,0,0,1-12.8,2,37.5,37.5,0,0,1-12.9-2.1,29.7,29.7,0,0,1-9.9-6.2,27.8,27.8,0,0,1-6.4-9.8,34.9,34.9,0,0,1-2.3-12.9,35.3,35.3,0,0,1,2.3-12.9,28.7,28.7,0,0,1,6.4-9.8,29.4,29.4,0,0,1,9.9-6.1,35.3,35.3,0,0,1,12.9-2.2,34.7,34.7,0,0,1,12.8,2.2A29.9,29.9,0,0,1,519,72a26.1,26.1,0,0,1,6.4,9.7A35.1,35.1,0,0,1,527.7,94.5Zm-42,0c0,4.8.9,8.6,2.8,11.2a9.2,9.2,0,0,0,7.9,3.9,8.7,8.7,0,0,0,7.7-4q2.7-3.9,2.7-11.1t-2.7-11.1a9.1,9.1,0,0,0-7.8-3.9,8.9,8.9,0,0,0-7.8,3.9C486.6,86,485.7,89.7,485.7,94.5Z"/><path d="M570.2,121.8a12.4,12.4,0,0,1-4.6,2.4,22.9,22.9,0,0,1-6.8.9,24,24,0,0,1-8.5-1.4c-2.4-.9-4.1-2.2-4.8-3.9a70.4,70.4,0,0,1-3.1-9.1c-1.2-4.2-2.3-8.8-3.4-13.7s-2.2-10-3.2-15.1-1.8-9.7-2.3-13.6a14,14,0,0,1,4.5-2.9,13.6,13.6,0,0,1,6.1-1.3A11.5,11.5,0,0,1,551,66c1.8,1.2,2.9,3.3,3.3,6.4q1.2,9.1,2.1,15c.5,4,1,7.2,1.4,9.8s.6,4.4.8,5.7.4,2.4.5,3.2h.5l1.3-5.6,2.1-8.3c.8-3.1,1.6-6.5,2.5-10.2s1.7-7.2,2.6-10.8a25,25,0,0,1,4.8-2.1,23,23,0,0,1,5.8-.7,19.3,19.3,0,0,1,7.2,1.3,6.4,6.4,0,0,1,3.8,4.1c1,3.5,1.9,7,2.8,10.3s1.7,6.4,2.4,9.2,1.4,5.4,1.9,7.6a49.8,49.8,0,0,1,1.2,5.2h.6c.9-6.2,1.8-12.6,2.6-19.2s1.6-13.4,2.3-20.3a16.6,16.6,0,0,1,4.6-1.9,19.7,19.7,0,0,1,4.8-.6,12.8,12.8,0,0,1,7,1.8c1.8,1.2,2.7,3.3,2.7,6.2a41.7,41.7,0,0,1-.6,5.8c-.4,2.6-.9,5.4-1.5,8.6s-1.4,6.6-2.3,10.1-1.6,6.9-2.5,10.2-1.6,6.3-2.4,8.9a48.4,48.4,0,0,1-2,6.1,12.1,12.1,0,0,1-5.1,2.4,30.2,30.2,0,0,1-7.5.9c-6.7,0-10.6-1.7-11.8-5.1q-.7-2.1-1.8-5.4c-.8-2.2-1.5-4.7-2.3-7.3s-1.6-5.4-2.3-8.2-1.3-5.6-1.8-8.2c-.6,2.8-1.2,5.7-2,8.7s-1.7,5.9-2.5,8.7-1.6,5.5-2.3,7.8S570.6,120.4,570.2,121.8Z"/><path d="M641.6,108.7c-.9-2-1.9-4.2-2.9-6.7s-2-5.3-3.1-8.5-2.2-6.9-3.3-11-2.4-8.8-3.7-14.2a16.1,16.1,0,0,1,10.7-4.2,13.1,13.1,0,0,1,6.9,1.7c1.9,1.2,3.2,3.4,4.1,6.6l9.5,33h.5c.9-2.7,1.9-5.7,2.8-8.9s1.8-6.5,2.7-9.9,1.7-6.8,2.5-10.2,1.4-6.7,1.9-10a20.5,20.5,0,0,1,9.5-2.3,12.8,12.8,0,0,1,7,1.8c1.8,1.2,2.7,3.3,2.7,6.2a35.5,35.5,0,0,1-.8,7.5c-.6,2.9-1.3,5.9-2.2,9.1s-2,6.5-3.3,9.9-2.5,6.7-3.9,10a100.1,100.1,0,0,1-4.2,9.3c-1.4,2.9-2.8,5.6-4.2,7.9a85.2,85.2,0,0,1-6.2,9.6,34.7,34.7,0,0,1-5.5,5.8,15.5,15.5,0,0,1-5.3,2.9,20.3,20.3,0,0,1-5.5.8,11.3,11.3,0,0,1-8.2-3,12.5,12.5,0,0,1-3.7-7.8c2.6-2,5.1-4.3,7.7-6.7a68.9,68.9,0,0,0,6.9-7.5,10.8,10.8,0,0,1-4.3-2.8Q644.3,114.9,641.6,108.7Z"/><path d="M744.8,94.7a92.4,92.4,0,0,1-9.6-3.7,27.7,27.7,0,0,1-7.5-4.5,16.6,16.6,0,0,1-4.8-6.3,19.9,19.9,0,0,1-1.8-8.9A19.5,19.5,0,0,1,729,55c5.2-4.1,12.6-6.1,22-6.1a58.6,58.6,0,0,1,9.6.7,28.6,28.6,0,0,1,7.6,2.2,14.1,14.1,0,0,1,5,3.8,8.9,8.9,0,0,1,1.8,5.5,9.7,9.7,0,0,1-1.4,5.3,16,16,0,0,1-3.5,3.8,26.7,26.7,0,0,0-7.1-2.9,33.5,33.5,0,0,0-9.7-1.3c-3.6,0-6.3.5-7.9,1.5s-2.6,2.3-2.6,3.8a3.5,3.5,0,0,0,1.6,2.9,13.9,13.9,0,0,0,4.7,2.1l6.3,2.1c7.6,2.4,13.3,5.4,17.4,9.2s6,8.7,6,15.1a19.8,19.8,0,0,1-8,16.5c-5.4,4.2-13.2,6.3-23.6,6.3a55.6,55.6,0,0,1-10.3-.9,31.1,31.1,0,0,1-8.3-2.6,16.2,16.2,0,0,1-5.5-4.3,9.6,9.6,0,0,1-2-6,8.7,8.7,0,0,1,2.1-5.9,15.6,15.6,0,0,1,4.4-3.8,31.9,31.9,0,0,0,8.2,4.6,28.5,28.5,0,0,0,10.6,1.9c4,0,6.7-.6,8.3-1.8a5.2,5.2,0,0,0,2.4-4.2,4.2,4.2,0,0,0-1.9-3.7,28.4,28.4,0,0,0-5.4-2.4Zm11.8-73.2c4,.3,6.8,1.3,8.4,2.8a7.4,7.4,0,0,1,2.6,5.5,7.7,7.7,0,0,1-2,5.5,16.9,16.9,0,0,1-6.2,3.7L743,45.5a10.1,10.1,0,0,1-5.6-2.9,6.6,6.6,0,0,1-2.1-4.8,6.2,6.2,0,0,1,.9-3.2,5.7,5.7,0,0,1,2.8-2.5Z"/><path d="M820.7,121.8a12,12,0,0,1-4.5,2.4,23.6,23.6,0,0,1-6.9.9,24,24,0,0,1-8.5-1.4,8.1,8.1,0,0,1-4.8-3.9,70.4,70.4,0,0,1-3.1-9.1c-1.1-4.2-2.3-8.8-3.4-13.7s-2.2-10-3.2-15.1-1.7-9.7-2.3-13.6a16.1,16.1,0,0,1,10.7-4.2,11.5,11.5,0,0,1,6.9,1.9c1.8,1.2,2.9,3.3,3.3,6.4.8,6.1,1.5,11.1,2,15s1,7.2,1.4,9.8.6,4.4.8,5.7.4,2.4.6,3.2h.5c.2-1.3.6-3.1,1.2-5.6l2.1-8.3c.8-3.1,1.7-6.5,2.5-10.2l2.7-10.8a27.3,27.3,0,0,1,4.7-2.1,23.6,23.6,0,0,1,5.8-.7,19.3,19.3,0,0,1,7.2,1.3,6.8,6.8,0,0,1,3.9,4.1c.9,3.5,1.9,7,2.7,10.3s1.7,6.4,2.4,9.2,1.4,5.4,2,7.6l1.2,5.2h.6c.8-6.2,1.7-12.6,2.5-19.2s1.7-13.4,2.4-20.3a14.9,14.9,0,0,1,4.5-1.9,19.7,19.7,0,0,1,4.8-.6,12.5,12.5,0,0,1,7,1.8c1.8,1.2,2.8,3.3,2.8,6.2a41.7,41.7,0,0,1-.6,5.8c-.4,2.6-1,5.4-1.6,8.6s-1.4,6.6-2.2,10.1-1.7,6.9-2.5,10.2l-2.4,8.9c-.8,2.6-1.5,4.7-2,6.1a12.6,12.6,0,0,1-5.2,2.4,29.4,29.4,0,0,1-7.4.9c-6.7,0-10.7-1.7-11.9-5.1q-.7-2.1-1.8-5.4l-2.3-7.3c-.8-2.6-1.5-5.4-2.3-8.2s-1.3-5.6-1.8-8.2c-.5,2.8-1.2,5.7-2,8.7s-1.6,5.9-2.5,8.7-1.6,5.5-2.3,7.8Z"/><path d="M881.9,49.1a10.5,10.5,0,0,1,3.1-7.7,10.6,10.6,0,0,1,8.1-3.1,10.9,10.9,0,0,1,8.1,3.1,11.4,11.4,0,0,1,0,15.4,10.9,10.9,0,0,1-8.1,3.1,10.6,10.6,0,0,1-8.1-3.1A10.5,10.5,0,0,1,881.9,49.1Zm21.4,74.4-3.9.7a45.5,45.5,0,0,1-5.2.4,23.3,23.3,0,0,1-4.8-.4,7.4,7.4,0,0,1-3.5-1.4,6.2,6.2,0,0,1-2.2-3,10.9,10.9,0,0,1-.8-4.8V66.1l3.9-.6a29.6,29.6,0,0,1,5.2-.4,32.8,32.8,0,0,1,4.7.3,8.3,8.3,0,0,1,3.6,1.5,7.2,7.2,0,0,1,2.2,2.9,13.2,13.2,0,0,1,.8,4.9Z"/><path d="M940.2,63.5a48.8,48.8,0,0,1,11.9,1.3,27,27,0,0,1,9.1,4,18.5,18.5,0,0,1,5.8,6.9,21.2,21.2,0,0,1,2,9.8v26.8a7.2,7.2,0,0,1-1.7,5.1,17.3,17.3,0,0,1-4.1,3.5c-5.2,3.1-12.6,4.6-22,4.6a50.8,50.8,0,0,1-11.5-1.2,26.5,26.5,0,0,1-8.7-3.6,16.6,16.6,0,0,1-5.7-6.1,18.2,18.2,0,0,1-1.9-8.6c0-5.5,1.6-9.8,4.9-12.7s8.3-4.8,15.2-5.6l15.7-1.6v-.9a5.2,5.2,0,0,0-3-5,20.8,20.8,0,0,0-8.8-1.5,43.3,43.3,0,0,0-8.9,1,39.8,39.8,0,0,0-7.8,2.4,8.3,8.3,0,0,1-2.7-3.3,10.6,10.6,0,0,1-1-4.6,7.6,7.6,0,0,1,1.5-5,12,12,0,0,1,4.6-3.2,34.2,34.2,0,0,1,8.2-1.9A71.2,71.2,0,0,1,940.2,63.5Zm1,47.2a24.8,24.8,0,0,0,4.5-.5,9.6,9.6,0,0,0,3.7-1.1V99.5l-8.7.7a13.8,13.8,0,0,0-5.5,1.5,4,4,0,0,0-2.2,3.6,4.9,4.9,0,0,0,1.9,3.9Q936.7,110.7,941.2,110.7Z"/><path d="M1001.9,103.6a4.9,4.9,0,0,0,2,4.4,9.9,9.9,0,0,0,5.6,1.3l3.7-.3,3.4-.7a11.9,11.9,0,0,1,1.8,2.9,9.3,9.3,0,0,1,.8,3.9,9.1,9.1,0,0,1-3.4,7.4c-2.3,2-6.3,2.9-12.1,2.9s-12.4-1.6-16.2-4.8-5.7-8.4-5.7-15.6V53.7a27.6,27.6,0,0,1,3.7-.8,30,30,0,0,1,5.3-.4,15.8,15.8,0,0,1,8.2,1.8c1.9,1.3,2.9,3.9,2.9,7.9v7.7h15.7a13,13,0,0,1,1.4,3.3,11.8,11.8,0,0,1,.7,4.3c0,2.8-.6,4.9-1.9,6.1a6.9,6.9,0,0,1-5,1.9h-10.9Z"/><path d="M438.5,170.9a12.7,12.7,0,0,1,1.5,3.5,14.9,14.9,0,0,1,.7,4.7c0,3.1-.7,5.3-2,6.6a7.2,7.2,0,0,1-5.3,2H408.2v13.6h26.3a13.5,13.5,0,0,1,1.6,3.4,17.6,17.6,0,0,1,.6,4.6c0,3-.6,5.2-1.9,6.5a7.1,7.1,0,0,1-5.4,2h-21v25.3a29.5,29.5,0,0,1-4.1.8l-5.6.3a24.3,24.3,0,0,1-4.9-.4,9.3,9.3,0,0,1-3.5-1.5,6.2,6.2,0,0,1-2.2-3,17.2,17.2,0,0,1-.7-5V182.1a10.4,10.4,0,0,1,11.2-11.2Z"/><path d="M448.1,169.1a10.9,10.9,0,0,1,3.1-7.7,12.1,12.1,0,0,1,16.2,0,11.1,11.1,0,0,1,0,15.4,12.1,12.1,0,0,1-16.2,0A10.9,10.9,0,0,1,448.1,169.1Zm21.4,74.4-3.9.7a45.5,45.5,0,0,1-5.2.4,23.3,23.3,0,0,1-4.8-.4,7.8,7.8,0,0,1-3.5-1.4,6.2,6.2,0,0,1-2.2-3,12.6,12.6,0,0,1-.8-4.8V186.1l3.9-.6a30.4,30.4,0,0,1,5.2-.4,34.3,34.3,0,0,1,4.8.3,7.9,7.9,0,0,1,3.5,1.5,6.4,6.4,0,0,1,2.2,2.9,13.2,13.2,0,0,1,.8,4.9Z"/><path d="M484.5,243.6a13,13,0,0,1-3.1-3.9,12.7,12.7,0,0,1-1.1-5.2,11.2,11.2,0,0,1,1.1-4.7,18.6,18.6,0,0,1,2.9-4.4l20.6-24.3H482.8a21.8,21.8,0,0,1-1.4-3.3,16.3,16.3,0,0,1-.6-4.5q0-4.2,1.8-6a6.6,6.6,0,0,1,5-1.9h37.8a13.5,13.5,0,0,1,3.1,4,11.7,11.7,0,0,1,0,9.9,29.6,29.6,0,0,1-2.8,4.4l-20.2,24.2H529a15.9,15.9,0,0,1,1.4,3.4,15,15,0,0,1,.7,4.4c0,2.8-.7,4.8-1.9,6.1a6.8,6.8,0,0,1-5,1.8Z"/><path d="M536.2,251.8a10.3,10.3,0,0,0,3.9-4.6,19.9,19.9,0,0,0,1.1-6.6V186.1l4-.6a29.6,29.6,0,0,1,5.2-.4,33.8,33.8,0,0,1,4.7.3,8.3,8.3,0,0,1,3.6,1.5,8.2,8.2,0,0,1,2.2,2.9,13.2,13.2,0,0,1,.8,4.9v47.8a37.3,37.3,0,0,1-1.2,9.2,21.9,21.9,0,0,1-3.5,7,14.7,14.7,0,0,1-5.4,4.5,15.2,15.2,0,0,1-7.1,1.7,11,11,0,0,1-8.3-3.2,11.7,11.7,0,0,1-3.1-8Zm4.1-82.7a10.5,10.5,0,0,1,3.1-7.7,10.6,10.6,0,0,1,8.1-3.1,10.9,10.9,0,0,1,8.1,3.1,11.4,11.4,0,0,1,0,15.4,10.9,10.9,0,0,1-8.1,3.1,10.6,10.6,0,0,1-8.1-3.1A10.5,10.5,0,0,1,540.3,169.1Z"/><path d="M635,214.5a36.5,36.5,0,0,1-2.3,13.2,26.9,26.9,0,0,1-6.4,9.8,29.2,29.2,0,0,1-9.9,6,38,38,0,0,1-12.9,2,37,37,0,0,1-12.8-2.1,27.8,27.8,0,0,1-9.9-6.2,26.5,26.5,0,0,1-6.4-9.8,33,33,0,0,1-2.3-12.9,33.3,33.3,0,0,1,2.3-12.9,26.7,26.7,0,0,1,16.3-15.9,34.7,34.7,0,0,1,12.8-2.2,35.7,35.7,0,0,1,12.9,2.2,29.9,29.9,0,0,1,9.9,6.3,27.4,27.4,0,0,1,6.4,9.7A35.1,35.1,0,0,1,635,214.5Zm-42,0c0,4.8.9,8.6,2.8,11.2a9.1,9.1,0,0,0,7.8,3.9,8.8,8.8,0,0,0,7.8-4q2.7-3.9,2.7-11.1c0-4.8-.9-8.5-2.8-11.1a8.9,8.9,0,0,0-7.8-3.9,9.1,9.1,0,0,0-7.8,3.9Q593,207.3,593,214.5Z"/><path d="M665.3,223.6a4.9,4.9,0,0,0,2,4.4,9.9,9.9,0,0,0,5.6,1.3l3.7-.3,3.4-.7a11.9,11.9,0,0,1,1.8,2.9,9.3,9.3,0,0,1,.8,3.9,9.1,9.1,0,0,1-3.4,7.4c-2.3,2-6.3,2.9-12.1,2.9s-12.4-1.6-16.2-4.8-5.7-8.4-5.7-15.6V173.7a27.6,27.6,0,0,1,3.7-.8,30,30,0,0,1,5.3-.4,15.8,15.8,0,0,1,8.2,1.8c1.9,1.3,2.9,3.9,2.9,7.9v7.7H681a13,13,0,0,1,1.4,3.3,11.8,11.8,0,0,1,.7,4.3c0,2.8-.6,4.9-1.9,6.1a6.9,6.9,0,0,1-5,1.9H665.3Z"/><path d="M723,245.5a42.3,42.3,0,0,1-13.1-1.9,30.8,30.8,0,0,1-10.6-6,26.5,26.5,0,0,1-7-9.9,34.1,34.1,0,0,1-2.6-14.1,31.4,31.4,0,0,1,2.6-13.6,27.2,27.2,0,0,1,6.7-9.4,28.4,28.4,0,0,1,9.6-5.4,37.8,37.8,0,0,1,11.1-1.7,33.2,33.2,0,0,1,11.6,1.9,31,31,0,0,1,9,5.3,23.2,23.2,0,0,1,5.8,8,25.2,25.2,0,0,1,2.1,10.2c0,2.8-.7,4.8-2.2,6.3a12.1,12.1,0,0,1-6.4,2.7L710,222.4a9.5,9.5,0,0,0,5.4,5.9,21.2,21.2,0,0,0,9.3,2A31.2,31.2,0,0,0,734,229a30.7,30.7,0,0,0,7.2-2.9,10.5,10.5,0,0,1,3.2,3.4,8.1,8.1,0,0,1,1.3,4.5,8.7,8.7,0,0,1-5,8.1,29.5,29.5,0,0,1-8.7,2.7A58.1,58.1,0,0,1,723,245.5Zm-3.3-47.1a12.8,12.8,0,0,0-5,.9,11.1,11.1,0,0,0-3.4,2.5,9,9,0,0,0-2,3.4,16.3,16.3,0,0,0-.8,3.7l20.5-3.3a8.8,8.8,0,0,0-2.6-4.8C724.9,199.2,722.6,198.4,719.7,198.4Z"/><path d="M778.5,243.5a29.7,29.7,0,0,1-3.8.7,30.8,30.8,0,0,1-5.3.4,23.3,23.3,0,0,1-4.8-.4,7.4,7.4,0,0,1-3.5-1.4,6.2,6.2,0,0,1-2.2-3,10.9,10.9,0,0,1-.8-4.8V199a10.3,10.3,0,0,1,1-4.8,12.1,12.1,0,0,1,2.9-3.5,21.7,21.7,0,0,1,4.8-2.8,38.9,38.9,0,0,1,6-2.2,37.3,37.3,0,0,1,6.8-1.5,40.2,40.2,0,0,1,6.9-.6,16.7,16.7,0,0,1,9.1,2.2c2.3,1.5,3.4,3.9,3.4,7.3a12.6,12.6,0,0,1-.5,3.3,11,11,0,0,1-1.2,2.9l-5.1.3a43.4,43.4,0,0,0-5.2.7l-4.7,1a20.9,20.9,0,0,0-3.8,1.3Z"/><path d="M829.6,183.5a47.9,47.9,0,0,1,11.8,1.3,26.2,26.2,0,0,1,9.1,4,17.9,17.9,0,0,1,5.9,6.9,22.5,22.5,0,0,1,2,9.8v26.8a7.7,7.7,0,0,1-1.7,5.1,17.8,17.8,0,0,1-4.2,3.5c-5.2,3.1-12.5,4.6-21.9,4.6a50.2,50.2,0,0,1-11.5-1.2,28,28,0,0,1-8.8-3.6,16.4,16.4,0,0,1-5.6-6.1,18.2,18.2,0,0,1-2-8.6c0-5.5,1.7-9.8,4.9-12.7s8.4-4.8,15.3-5.6l15.7-1.6v-.9a5.1,5.1,0,0,0-3.1-5c-2-1-4.9-1.5-8.8-1.5a45.9,45.9,0,0,0-16.7,3.4,8.1,8.1,0,0,1-2.6-3.3,10.7,10.7,0,0,1-1.1-4.6,7.6,7.6,0,0,1,1.5-5,12.9,12.9,0,0,1,4.6-3.2,36.3,36.3,0,0,1,8.3-1.9A70,70,0,0,1,829.6,183.5Zm1,47.2a26.8,26.8,0,0,0,4.5-.5,9,9,0,0,0,3.6-1.1v-9.6l-8.6.7a13.3,13.3,0,0,0-5.5,1.5,3.8,3.8,0,0,0-2.2,3.6,4.7,4.7,0,0,0,1.9,3.9Q826.1,230.7,830.6,230.7Z"/><path d="M897.6,183.5a44.3,44.3,0,0,1,13.4,1.9,27.1,27.1,0,0,1,10.6,5.7,25.4,25.4,0,0,1,7,9.6,34.5,34.5,0,0,1,2.5,13.9A38.9,38.9,0,0,1,929,228a26.1,26.1,0,0,1-6.2,9.7,24.8,24.8,0,0,1-9.5,5.8,37.5,37.5,0,0,1-12.4,1.9,29.3,29.3,0,0,1-9.6-1.5v19.9l-3.9.8a45.6,45.6,0,0,1-5.4.4,22.9,22.9,0,0,1-4.7-.4,7.4,7.4,0,0,1-3.5-1.4,6.2,6.2,0,0,1-2.2-3,12.8,12.8,0,0,1-.7-4.8V197.8a8.7,8.7,0,0,1,1.4-5.3,13,13,0,0,1,3.7-3.7,33.4,33.4,0,0,1,9.3-3.9A52,52,0,0,1,897.6,183.5Zm.3,45.8q12.3,0,12.3-14.7,0-7.7-3-11.4c-2.1-2.5-5-3.7-8.8-3.7a12.8,12.8,0,0,0-4.1.5,15.2,15.2,0,0,0-3.1,1.3v26.4l3.1,1.2A13.7,13.7,0,0,0,897.9,229.3Z"/><path d="M940.6,169.1a10.5,10.5,0,0,1,3.1-7.7,10.6,10.6,0,0,1,8.1-3.1,10.9,10.9,0,0,1,8.1,3.1,11.4,11.4,0,0,1,0,15.4,10.9,10.9,0,0,1-8.1,3.1,10.6,10.6,0,0,1-8.1-3.1A10.5,10.5,0,0,1,940.6,169.1ZM962,243.5l-3.9.7a47.3,47.3,0,0,1-5.3.4,22.9,22.9,0,0,1-4.7-.4,7.4,7.4,0,0,1-3.5-1.4,7.1,7.1,0,0,1-2.3-3,12.8,12.8,0,0,1-.7-4.8V186.1l3.9-.6a29.6,29.6,0,0,1,5.2-.4,33.8,33.8,0,0,1,4.7.3,8.3,8.3,0,0,1,3.6,1.5,7.2,7.2,0,0,1,2.2,2.9,13.2,13.2,0,0,1,.8,4.9Z"/><path d="M974.4,169.1a10.9,10.9,0,0,1,3.1-7.7,12.1,12.1,0,0,1,16.2,0,11.1,11.1,0,0,1,0,15.4,12.1,12.1,0,0,1-16.2,0A10.9,10.9,0,0,1,974.4,169.1Zm21.4,74.4-3.9.7a45.5,45.5,0,0,1-5.2.4,23.3,23.3,0,0,1-4.8-.4,7.8,7.8,0,0,1-3.5-1.4,6.2,6.2,0,0,1-2.2-3,12.6,12.6,0,0,1-.8-4.8V186.1l3.9-.6a30.4,30.4,0,0,1,5.2-.4,34.3,34.3,0,0,1,4.8.3,7.9,7.9,0,0,1,3.5,1.5,6.4,6.4,0,0,1,2.2,2.9,13.2,13.2,0,0,1,.8,4.9Z"/><path d="M206.7,126.6c-5.2,13.2-24,13.5-29.5.4-6.4-14.9,7-29.4,21.3-23.1a17.7,17.7,0,0,1,4.3,2.8,18.7,18.7,0,0,1,3.9,19.9"/><path d="M232.8,87.8c-3.2,10.9-20.3,9.6-26.1-2.1s2.1-22.1,14.1-18.5a17.9,17.9,0,0,1,6.2,3.4c5,4.4,7.4,11.6,5.8,17.2"/><path d="M240.2,122.9c-4,12.1-20.4,12.4-26.5.5S215,95.5,229,99.6a15,15,0,0,1,6.7,4,19.7,19.7,0,0,1,4.5,19.3"/><path d="M200.8,90.5c-4.8,11.6-23.4,11.2-28.8-.7s5.4-24.2,19-19.8a16.6,16.6,0,0,1,5.2,2.8c5.1,4.3,7.1,11.7,4.6,17.7"/><path d="M165.3,95.9c-5.2,13.7-22.8,15.5-28.9,2.9-5.4-10.9,7.3-24.6,19.4-20.9a14.5,14.5,0,0,1,5.1,2.8c4.9,3.9,6.6,9.6,4.4,15.2"/><path d="M220.3,56.1c-2.6,10.3-18.5,7.2-23.5-2.3-4-7.6,3.4-15.2,12.2-12.6a18.1,18.1,0,0,1,5.5,2.9c6.5,5.1,6.4,9.7,5.8,12"/><path d="M212.2,163.1c-6.1,13.5-22.7,13.8-27.7.6s8.6-26.5,19.9-21.5a15.8,15.8,0,0,1,4.9,3.5,15.6,15.6,0,0,1,2.9,17.4"/><path d="M171.6,131.8c-5.5,14.1-22.9,15.4-28.9,2.2s7.1-26.7,19.3-22.6a15.4,15.4,0,0,1,5.4,3.2c5.1,4.6,6.7,11,4.2,17.2"/><path d="M192.4,58.5c-4.3,11.7-22.6,9.4-26.7-.7s8.2-17.6,18.5-13.3a20.6,20.6,0,0,1,3.4,1.9c4.6,3.3,6.3,7.9,4.8,12.1"/><path d="M244.4,158c-5.4,13-20.2,13.6-25.6,1s6.2-27.1,17.1-22.9a14.3,14.3,0,0,1,5.7,4.3c5.4,7.1,4.5,13.5,2.8,17.6"/><path d="M257.3,83.3c-.6,8.9-10,11.3-18.5,1.4s-3.8-20.4,3.5-19.8c3.7.3,6.8,3,8.3,4.3,4.5,4.2,7,9.5,6.7,14.1"/><path d="M267.7,115.9c-1.5,9.2-11.2,14.1-19.7,2.6s-2.4-25.4,7-23.4c1.4.3,4.2,1.3,7.4,4.7,5.5,6.6,6,12.4,5.3,16.1"/><path d="M157.8,63.3c-6,10.4-23.5,10.3-26.5-.1S143.6,43.3,154,49.3l1,.7c6.6,5.2,3.8,11.5,2.8,13.3"/><path d="M174.5,170.2c-5.8,12.6-22.2,12.7-26.5.2s9.3-26,20.8-19.6a18.6,18.6,0,0,1,2.8,2.1,15.3,15.3,0,0,1,2.9,17.3"/><path d="M244.5,55.1c-.1,6.6-8.9,6.6-15.6,0s-6.2-15.3.8-15.1c3.5.2,6.6,2.5,7.8,3.3,6.6,5.5,7,10.4,7,11.8"/><path d="M272.9,155.5c-3.6,10.8-14.5,12.3-19.8,2.7-6.3-11.6,1.4-27.9,11.7-24.6a12.4,12.4,0,0,1,5.7,4.4,19.9,19.9,0,0,1,2.4,17.5"/><path d="M210.1,32.8c-1.7,5.9-14.9,4.4-18.8-2.1s1.9-10.5,10.1-8.4a16.6,16.6,0,0,1,4.1,1.8c3.5,2.2,5.4,5.9,4.6,8.7"/><path d="M209.8,200.8c-6,9.3-20.8,10.3-23.6-.7-3.1-12.8,10.1-24.5,20.8-18.5a12.2,12.2,0,0,1,2.9,2.3c3.5,4.3,3.4,11.4-.1,16.9"/><path d="M134,143.6c-4.1,10.3-19.7,13.6-25,2.4s5.5-26.6,18-22a11.7,11.7,0,0,1,3.4,1.9c4.6,3.9,6.1,11.3,3.6,17.7"/><path d="M288.2,114.6c0,8.4-5.7,9.6-10.6,5.1-7.1-6.6-9.4-24.2-1.7-24.6,3.5-.2,6.3,3.1,7.2,4.1a28.1,28.1,0,0,1,5.1,15.4"/><path d="M243.4,196.8c-6.1,9.3-20.1,9.7-22-2s10.8-24.5,20.5-18a9.8,9.8,0,0,1,2.5,2.5c3.1,4.6,2.7,11.9-1,17.5"/><path d="M127,105.1c-4.9,11.3-21.2,13.3-25.5,3.1C96.1,95.9,110,81.6,122,87a15.9,15.9,0,0,1,2.2,1.3c4.3,3.5,5.5,10.5,2.8,16.8"/><path d="M275.6,80.7c1,6.5-3.8,7.2-8.6,3.9-7.7-5.3-12.2-19.8-6.7-21.2,1.5-.4,4.1-.1,8,3.6s6.7,9.3,7.3,13.7"/><path d="M182.7,34.2c-3.8,7.2-20.2,6-22.1-1.6S171.3,20,180,25c3.3,2.2,4.5,6,2.7,9.2"/><path d="M271,192c-5,9.4-15.3,10.1-18.1,1.2-3.7-11.5,6.7-25.6,15.6-21.2a8.1,8.1,0,0,1,3.5,3.5c3.5,7.4-.2,15-1,16.5"/><path d="M121.4,72.5c-5.9,10.4-21.9,11.7-24.4,2C94,63,109.8,53.4,118.9,58.3l.9.5c6.3,5.2,2.1,12.9,1.6,13.7"/><path d="M260,53.9c1.4,4.5-2,5.1-5.9,3.1-7.2-3.8-13.6-15.5-9.1-16.8,1-.3,3.1,0,7,3s7,7.4,8,10.7"/><path d="M229.1,31.8c.7,4.3-5.5,4.7-11.4.7s-7.2-9.5-2.6-10.3c1.4-.3,4-.1,7.8,2.2s5.8,5.1,6.2,7.4"/><path d="M293.8,150.2c-1.9,8.2-8.2,9.8-12.2,3.2-5.3-8.9-2.4-26.7,5.8-24.2,2.3.7,3.7,2.9,4.3,4,3,5.2,3.2,12.5,2.1,17"/><path d="M152.9,37.6c-5.4,8.1-22,8.1-23,0s13.4-14,21.6-9.4c3.7,2.5,3.4,6.5,1.4,9.4"/><path d="M177.8,205.1c-5,9.9-19.5,12-22.9.7s8.4-23.1,18.8-17.7a12.6,12.6,0,0,1,2.7,2c3.5,3.8,4,9.8,1.4,15"/><path d="M140.7,177.4c-3.6,10.7-17.8,14.1-23.2,2.7s4.2-24.3,15.6-20.6a12.4,12.4,0,0,1,4,2.2,14.7,14.7,0,0,1,3.6,15.7"/><path d="M199.8,15.9c-2.2,3.9-13.8,1.8-14.6-2.7-.5-2.9,6.3-4.3,11.8-1.5,3.3,1.8,3.4,3.3,2.8,4.2"/><path d="M292.3,187.6c-3.3,8-9.3,11.6-12,4.3-3.6-10.1,4.6-25.3,10.2-22.6,1.6.7,2.3,2.5,2.8,3.7a21.3,21.3,0,0,1-1,14.6"/><path d="M286.2,78.3c1.5,4,1.6,7.3-1,6C278.7,81,271.8,64.6,274.9,64c1.2-.2,3.6,2.3,4.5,3.3a41.6,41.6,0,0,1,6.8,11"/><path d="M261.7,225.1c-5.8,7.6-14.9,9.6-15.8,1.2s11.1-21.1,17.2-16.6a8.2,8.2,0,0,1,1.9,2.8c1.2,3.6,0,8.4-3.3,12.6"/><path d="M299.4,109.1c.7,4.8-.3,8.4-3.1,6.1-6.2-4.9-9.7-22.6-6-23,1.5-.2,3.3,2.6,4.1,3.6a34.8,34.8,0,0,1,5,13.3"/><path d="M235.5,229.1c-7.7,8.6-18.4,7.9-18.9-1.2s13.3-20.6,20.2-13.7a8.3,8.3,0,0,1,1.3,1.8c2.6,5.4,0,10.1-2.6,13.1"/><path d="M216.3,17.2c.6,1.8-3.4,1.8-7.8-.6s-4.6-4-3.1-4.5,3.5.1,6.3,1.4,4.4,3,4.6,3.7"/><path d="M85.8,81.7c-5.3,10.4-17.6,13.5-20.5,5.2s9.8-22.3,18.2-18.1l1,.6c4.7,3.9,2.5,9.9,1.3,12.3"/><path d="M242.1,31.7c1.3,1.8,1.4,3.5-.8,3.1-5.2-.9-13.5-9.7-11.7-11.3s4.3,1.4,5.4,2a28.3,28.3,0,0,1,7.1,6.2"/><path d="M269,53c1.9,2.9,2.2,4.7.7,4.4-4.4-1-14.6-14.9-13.1-15.9s3.4,1.8,4.3,2.5a54.8,54.8,0,0,1,8.1,9"/><path d="M119.1,42.7c-7,9-20.3,9.4-21.6,2.7s13.7-16.6,21.3-11.6c4,3,1.9,6.9.3,8.9"/><path d="M306.8,145.2c-.4,5.5-2.3,9.6-4.8,6.7-4.6-5.2-4.8-25-.3-24.4,1.4.2,2.5,2.5,3,3.6a35.5,35.5,0,0,1,2.1,14.1"/><path d="M178.6,16.1c-5.3,5.1-17.7,2.7-17.2-1.8s10.3-6.1,15.9-3.1c3.2,1.9,2.5,3.7,1.3,4.9"/><path d="M108.1,185.1c-2.3,10.4-12.4,13.1-18.1,4.8s-.5-21.7,8.7-20.4a11.1,11.1,0,0,1,5,2.2,13.5,13.5,0,0,1,4.4,13.4"/><path d="M143.7,211.9c-4.6,10.3-16,10.8-19.7.9s5.5-20.2,14.1-16.4a12.7,12.7,0,0,1,3.1,2.1c4.8,5,4,10,2.5,13.4"/><path d="M173.6,237c-6.4,8.3-17,7.8-18.1-.8s10.1-17.9,17.3-12.9a11,11,0,0,1,1.6,1.5c3.7,5.2.7,10.3-.8,12.2"/><path d="M99.3,151c-3,11.9-14.7,14.8-20.5,5.1S81.1,133,90.6,135a12.6,12.6,0,0,1,8.7,16"/><path d="M206.4,231.9c-7.1,9-18.6,9-19.9,0s11.4-19.6,19.1-14.3a10.3,10.3,0,0,1,2.1,2.1c2.5,3.6,2,8.2-1.3,12.2"/><path d="M152.4,18c-6.2,5.5-18.9,4.7-18.3.1s12.6-8.5,18.6-5.5c3.1,2,.9,4.5-.3,5.4"/><path d="M91.3,116.6c-3.9,12.1-16.5,15.4-21.4,5.6S75.6,98.5,85,101.6a13,13,0,0,1,2.9,1.5c3.9,3,5.2,8.1,3.4,13.5"/><path d="M120.3,23.1c-5.6,4.9-18.4,7.3-17.7,2.2s15.3-11,19.7-8.4c2.7,2-1.9,6.1-2,6.2"/><path d="M305.9,180.8c-1.8,6.3-4.5,8-5.9,5.6-2.9-5.2,1.4-24.2,5.3-23.4,1.2.2,1.6,2.1,1.8,3,.7,3.6.2,9.8-1.2,14.8"/><path d="M84.6,54C79.9,61,67.2,65.5,66,59.1S78.5,40.7,85.4,44.5c2.5,1.7,1.5,6.1-.8,9.5"/><path d="M283,221.3c-4.5,6.7-9.9,7.5-10.7,3.2-1.4-6.6,7.9-21.9,13.4-19a3.4,3.4,0,0,1,1.6,2.7c.5,5.9-3.8,12.4-4.3,13.1"/><path d="M116.1,220.3c-1.6,7.2-10,10.4-14.5,3.6-5.7-8.8-1.1-19.6,7.6-17.9a9.9,9.9,0,0,1,3.6,1.7c5,4.9,3.5,11.8,3.3,12.6"/><path d="M146,242.4c-3.4,6.5-12.7,8.3-15,1.3-3.3-9.8,6.1-17.8,13-13.8a4.4,4.4,0,0,1,1.5,1.1c3.8,4.7,1.1,10.3.5,11.4"/><path d="M193.6,260.2c-5.6,4.6-15.7,5.7-14.6-.9,1.4-9.2,14.6-14.8,18.7-9.8l.4.6c1.9,4.8-3.8,9.6-4.5,10.1"/><path d="M59.2,129.8c-1.9,9.5-11.4,14-15.5,7.3-5.2-8.5,1.4-22.3,10-20.7a6,6,0,0,1,2.4,1c3.3,2.5,3.9,8.2,3.1,12.4"/><path d="M222.6,256.5c-6.4,5.3-15.1,5.5-14.9.3.3-8.4,14.8-17.2,19.6-11.8a6,6,0,0,1,.6,1.1c.9,2.7-1.4,7.1-5.3,10.4"/><path d="M70.3,164.5c-1,8.5-9.3,12.4-14.1,6.7-6.8-8.1-2.7-22,6.3-21.2a6.2,6.2,0,0,1,3.4,1.3c3.2,2.4,5.1,8,4.4,13.2"/><path d="M177.1,6.5c-4.1,1.6-13,.8-12.3-1.1s10.2-1.8,13.1-.7-.2,1.6-.8,1.8"/><path d="M92.5,227.8c0,6-3.8,11-9.5,5s-4.2-16.1,1-16.2a8,8,0,0,1,4.1,1.6,12,12,0,0,1,4.4,9.6"/><path d="M297.3,214.1c-2.1,4.2-5.6,8.9-6.6,6.6-1.8-4,5.8-21.1,9.1-20.3.8.2.8,2,.8,2.9a31.4,31.4,0,0,1-3.3,10.8"/><path d="M81,197.8c-.4,8.2-6.3,12.5-12.2,5.9s-3.8-19.3,3.5-18.6a7.1,7.1,0,0,1,3.8,1.6A13.2,13.2,0,0,1,81,197.8"/><path d="M143.5,265.6c-3.9,5-10.2,6.3-11.1.7s6.3-12.7,10.9-9.1l.9.8c1.6,2.1,1.3,5-.7,7.6"/><path d="M167.2,261.7c-5.5,5.5-13.9,6.3-13.7-.2s11.2-13.8,15.5-9l.4.5c1.6,2.4.7,5.8-2.2,8.7"/><path d="M128.5,9c-7.3,3.3-14.7,4-14.1,2.1S128.6,5,131.5,6.2c.3.2,1.2.9-3,2.8"/><path d="M121.7,246.8c-1.5,5.8-7,9.9-11.3,3.3s0-14.9,5.6-13.7a8.2,8.2,0,0,1,3.3,1.8,8.7,8.7,0,0,1,2.4,8.6"/><path d="M54.7,94.8c-3.4,9.9-12.4,14.8-15.5,8.5S44.9,81.9,51.8,84a5.1,5.1,0,0,1,1.5.7c3.1,2.8,2.5,7,1.4,10.1"/><path d="M90.4,30.5c-6.4,6-15.9,9-16,5S87.6,22.6,92.2,25c2,1.4-.3,4-1.8,5.5"/><path d="M154.4,6.2c-7.1,2.7-14.8,2.2-13.8.3S152.9,2.7,156.3,4c1.5.8-.8,1.8-1.9,2.2"/><path d="M267,250c-4.1,4.1-10.1,7.5-10.1,3.5.1-5.6,11.8-17.2,14.8-14.6.6.5.5,1.6.5,2.2-.5,2.9-2.2,5.9-5.2,8.9"/><path d="M54.3,66.7C49.4,75,41.5,79.1,40.4,74s9.7-18,14.2-15.7l.5.3c1.7,1.4,1.4,4.4-.8,8.1"/><path d="M246.8,254.4c-5.8,4.8-12.5,6.4-12.3,1.3.2-6.9,13.6-16.9,17.3-12.9a3,3,0,0,1,.7,1.9c.1,4.2-3.5,7.9-5.7,9.7"/><path d="M178.7,279.7c-5.4,2.9-12.3,3.3-11-.2,2-5.4,14.5-10.3,16.4-6.4l.2.3c.4,1.8-1.9,4.4-5.6,6.3"/><path d="M103.2,256.7c.1,4.5-3.1,6.6-5.9,3.8s-5.2-12.7-.7-13a5.9,5.9,0,0,1,3.4,1.2c3,2.8,3.2,7.5,3.2,8"/><path d="M281.1,245.3c-3.7,4.5-5.9,5.4-6.1,4.2-.4-2.8,10.5-16.8,11.9-15.3s0,1.9-.1,2c-1.2,3.2-4.2,7.2-5.7,9.1"/><path d="M123.3,272.2c-1.5,3.3-5.6,5-7.1,1.1-2.1-5.7,2-10.8,5.7-8.9a5.6,5.6,0,0,1,1.2.9c2.1,2.7.4,6.5.2,6.9"/><path d="M61.6,211.5c.9,6.1-2.8,8.8-6,6.3-6.7-5-8.2-16.9-2.3-17.6a4.8,4.8,0,0,1,3,.9c4.3,3.4,5.3,10.1,5.3,10.4"/><path d="M45.7,179.5c.5,7.6-4.3,11-8,7.6-5.3-5-5.9-18.3.6-18.9a4.5,4.5,0,0,1,2.9.9c2.8,2,4.3,6.8,4.5,10.4"/><path d="M154.6,281.9c-4.9,3-10,3-9.6.8.9-4.7,11.1-9.7,13.3-6.6.1.1.1.3.2.3s.6,2.8-3.9,5.5"/><path d="M34.6,146.2c-.5,7.4-5.5,12.1-8.8,8.4-5.2-5.7-2.2-20.2,4.1-19.6a3.5,3.5,0,0,1,1.7.7c3.4,3.1,3.1,9.3,3,10.5"/><path d="M203,278.7c-6.4,3.5-12.5,3.4-11.7.8,1.5-5.4,15.6-11.5,17.7-7.7.1.2.1.5.2.7-.1,1.7-2.6,4.2-6.2,6.2"/><path d="M226.1,276.6c-5.1,2.8-10.4,3.3-9.8.9s14.9-12.5,17.3-9a1.2,1.2,0,0,1,.1,1c-.4,1.9-3.7,4.9-7.6,7.1"/><path d="M58.7,44.4C54.5,49,48,52.7,47.8,50.7s11.6-15,14.7-12.9h.1c.8,1.5-3.7,6.4-3.9,6.6"/><path d="M27.1,115c-1.7,7.1-6.7,11.3-8.5,8.6-3.1-4.5,1.4-20.2,6.8-19.1a2.7,2.7,0,0,1,1.1.5c2.3,2.6.7,9.7.6,10"/><path d="M135.5,283.7c-2.4,2-7,3.8-6.9,1s6.2-8.3,8.6-5.9l.4.6c.7,1.7-1,3.4-2.1,4.3"/><path d="M98.6,15.7c-6.5,3.6-11.4,4.8-12.1,4.4-.7-2,13.4-8.6,16.6-7.9-.1.4-.5,1.3-4.5,3.5"/><path d="M76.6,240.3c.9,3.6.5,7.8-3.1,5.7-6-3.5-8.6-13.7-4.8-14.4a4.5,4.5,0,0,1,3.1,1,13.2,13.2,0,0,1,4.8,7.7"/><path d="M244.9,274.2c-4.1,2.6-8.3,4.1-7.9,2.2s13.6-12,14.8-9.9a2,2,0,0,1-.3,1.5c-.9,1.8-3.4,4.2-6.6,6.2"/><path d="M29.1,82.8c-2.6,5.8-7.4,12.4-8.5,9.1S27.2,74.4,29.8,76c.1.1.1.2.2.2s.9,2.5-.9,6.6"/><path d="M17.3,165.3c.5,5.5-.8,10.3-3.2,8.1s-3.9-15.5-.8-16a2.1,2.1,0,0,1,1.5.6c.7.6,2.1,2,2.5,7.3"/><path d="M157.5,293c-2.7.7-8.8,1.6-8,.3s13.1-5,13.4-3.3,0,.3-.1.4-.8,1.5-5.3,2.6"/><path d="M199.8,292.6c-3.4,1-9.1,2.2-8.1.7s5.2-3.1,9-4.2,5.8-1.5,6.2-.2-2.5,2.3-7.1,3.7"/><path d="M10.8,133.5c-.2,2.9-1.1,9.4-3.6,9.7-3-5.2.3-17,2.2-16.5l.6.4c.3.5,1.3,1.7.8,6.4"/><path d="M31.1,195.4c.5,2.2,1.6,9.9-2.4,7.4S22,188,25,187.3a3.1,3.1,0,0,1,2.2.7c.8.7,2.8,2.3,3.9,7.4"/><path d="M180.8,292.3c-4.6,1.4-10.2,2-9.5.7s14.4-6.1,15-4.3a.9.9,0,0,1-.1.7c-.6,1-2.5,2-5.4,2.9"/><path d="M259.1,269.7c-2.5,2.1-6.2,4.5-6.1,3.6s11.9-11.7,12.6-10.6-.3.8-.5,1.2a36,36,0,0,1-6,5.8"/><path d="M73.5,25.5c-2,1.5-9.8,6.6-9.4,5.4s12.3-9,13.3-8.7h0c-.1.3-.4.8-3.9,3.2"/><path d="M91.1,263.7c.6,1.6,1.8,6-.7,4.9-4.5-2.1-8-10.4-5.7-11.2s2,.5,2.5.9a11,11,0,0,1,3.9,5.4"/><path d="M110.2,276.7c0,.9-.2,5.6-3.2,2.6s-2.9-8.6-.6-8.5a3.1,3.1,0,0,1,1.9,1,5.6,5.6,0,0,1,1.9,4.9"/><path d="M48.2,225.2c2.2,5.5,1,7.4-.6,6.7-4.9-2-9.1-13-6.4-14.1.7-.3,1.6.3,2.2.7s3.5,3.5,4.8,6.7"/><path d="M36.7,59.2c-1.6,2.3-7.5,9.8-7.6,7.9s9-13.7,10.2-12.8h.1c-.1.5-.4,1.7-2.7,4.8"/><path d="M67.5,251.2c1.8,3.2,1.7,5.2.4,4.8-3.5-.9-9.5-10-7.5-11.4s1.5.2,2,.5a17,17,0,0,1,5.1,6.1"/><path d="M217.8,291.3c-4.6,1.8-7.2,1.9-7,1.4s13-6.8,13.8-5.7-.2.6-.4.8-3.5,2.3-6.4,3.5"/><path d="M11.1,105.9c-.8,2.7-2.7,8.9-4,8.8-.4-4.2,4-15.3,4.9-14.9s.1.1.1.2.3,1.4-1,5.9"/><path d="M10.4,184.8c.9,3.7,1.1,7.3.1,6.6S6.7,180,7.8,179.7s.3.1.5.2,1.5,2.5,2.1,4.9"/><path d="M24.3,211.9c.6,1.4,2.4,6.6.7,5.8s-6.1-10.2-4.8-10.9.8.1,1,.3,1.6,1.3,3.1,4.8"/></svg>